<svg xmlns="http://www.w3.org/2000/svg" xmlns:xlink="http://www.w3.org/1999/xlink" width="1366" zoomAndPan="magnify" viewBox="0 0 1024.5 576" height="768" preserveAspectRatio="xMidYMid meet" version="1.0"><defs><g/><clipPath id="4c50b2a5e1"><path d="M 0 0.140625 L 1024 0.140625 L 1024 575.859375 L 0 575.859375 Z M 0 0.140625 " clip-rule="nonzero"/></clipPath></defs><g clip-path="url(#4c50b2a5e1)"><path fill="#ffffff" d="M 0 0.140625 L 1024 0.140625 L 1024 575.859375 L 0 575.859375 Z M 0 0.140625 " fill-opacity="1" fill-rule="nonzero"/></g><path fill="#f7b879" d="M 502.394531 101.4375 C 508.34375 95.464844 519 95.675781 524.964844 101.503906 C 533.988281 110.3125 542.964844 119.171875 551.878906 128.09375 C 553.179688 129.257812 553.808594 131.277344 552.957031 132.886719 C 552.164062 134.28125 550.917969 135.34375 549.792969 136.46875 C 537.894531 148.261719 526.054688 160.113281 514.105469 171.851562 C 512.054688 170.335938 510.476562 168.324219 508.582031 166.632812 C 497.664062 155.882812 486.609375 145.269531 475.695312 134.519531 C 474.457031 133.394531 473.800781 131.613281 474.382812 129.984375 C 474.890625 128.933594 475.804688 128.15625 476.601562 127.316406 C 485.199219 118.671875 493.796875 110.054688 502.394531 101.4375 Z M 502.394531 101.4375 " fill-opacity="1" fill-rule="nonzero"/><path fill="#e93d34" d="M 409.503906 120.4375 C 419.007812 111.144531 435.808594 111.285156 445.355469 120.445312 C 465.359375 139.460938 485.078125 158.78125 504.988281 177.890625 C 508.101562 180.917969 511.1875 183.976562 514.226562 187.078125 C 526.785156 174.554688 539.464844 162.164062 552.15625 149.769531 C 562.054688 140.082031 572.066406 130.492188 581.773438 120.59375 C 585.21875 116.945312 590.085938 114.90625 594.988281 114.15625 C 602.8125 112.964844 611.242188 115.339844 616.960938 120.898438 C 623.492188 127.261719 629.9375 133.71875 636.355469 140.191406 C 644.539062 148.1875 645.710938 162.328125 638.90625 171.535156 C 636.015625 174.851562 632.597656 177.652344 629.539062 180.808594 C 609.839844 200.40625 590.242188 220.144531 570.46875 239.667969 C 569.445312 238.761719 569.851562 237.285156 569.777344 236.082031 C 569.765625 232.058594 570.339844 227.855469 568.789062 224.023438 C 567.496094 220.273438 564.660156 217.363281 561.824219 214.703125 C 552.929688 206.085938 544.214844 197.285156 535.402344 188.585938 C 533.710938 186.730469 531.023438 186.636719 528.726562 187.070312 C 526.554688 187.605469 524.828125 189.140625 523.238281 190.644531 C 520.0625 193.71875 517.042969 196.941406 513.808594 199.953125 C 510.023438 196.464844 506.449219 192.730469 502.570312 189.34375 C 500.066406 187.0625 496.464844 186.203125 493.1875 187.035156 C 491.488281 187.699219 490.285156 189.148438 489.003906 190.375 C 481.050781 198.191406 473.15625 206.066406 465.222656 213.890625 C 462.101562 216.890625 458.839844 220.070312 457.527344 224.316406 C 455.882812 228.992188 457.046875 233.976562 456.605469 238.789062 C 455.949219 239.609375 455.292969 238.585938 454.730469 238.1875 C 444.859375 228.296875 434.625 218.765625 424.585938 209.03125 C 412.617188 197.433594 401.117188 185.363281 389.054688 173.855469 C 382.941406 167.816406 381.417969 158.238281 383.820312 150.191406 C 384.9375 146.480469 387.238281 143.265625 389.925781 140.515625 C 396.40625 133.78125 402.890625 127.050781 409.503906 120.4375 Z M 409.503906 120.4375 " fill-opacity="1" fill-rule="nonzero"/><path fill="#0296af" d="M 395.125 200.65625 C 396.519531 199.03125 399.269531 198.835938 400.851562 200.296875 C 413.085938 212.429688 425.59375 224.308594 437.941406 236.332031 C 439.242188 237.726562 440.894531 238.753906 441.984375 240.339844 C 428.730469 253.695312 415.386719 266.96875 401.976562 280.164062 C 400.582031 281.863281 397.941406 281.679688 396.472656 280.203125 C 388.445312 272.296875 380.375 264.425781 372.351562 256.523438 C 370.003906 254.09375 367.308594 251.929688 365.414062 249.097656 C 362.023438 243.96875 361.921875 236.996094 364.941406 231.6875 C 366.308594 229.164062 368.515625 227.273438 370.492188 225.257812 C 378.75 217.105469 386.886719 208.828125 395.125 200.65625 Z M 395.125 200.65625 " fill-opacity="1" fill-rule="nonzero"/><path fill="#0296af" d="M 570.015625 240.976562 C 570.625 241.28125 571.179688 241.726562 571.613281 242.261719 C 577.027344 248.46875 582.957031 254.183594 588.785156 259.992188 C 605.019531 276.089844 621.3125 292.113281 637.425781 308.332031 C 646.089844 316.597656 646.273438 332.058594 637.65625 340.425781 C 631.082031 346.761719 624.597656 353.179688 618.105469 359.609375 C 611.078125 366.746094 599.902344 368.761719 590.492188 365.886719 C 587.304688 364.957031 584.367188 363.238281 582.015625 360.910156 C 568.574219 347.25 554.84375 333.886719 541.035156 320.597656 C 533.628906 313.523438 526.296875 306.355469 518.621094 299.566406 C 517.46875 298.488281 516.007812 297.65625 515.277344 296.195312 C 519.433594 295.9375 523.746094 296.953125 527.792969 295.6875 C 530.949219 294.683594 533.046875 291.984375 535.292969 289.722656 C 544.792969 280.101562 554.410156 270.570312 563.996094 261.027344 C 566.453125 258.589844 568.695312 255.726562 569.5 252.273438 C 570.292969 248.542969 569.648438 244.726562 570.015625 240.976562 Z M 570.015625 240.976562 " fill-opacity="1" fill-rule="nonzero"/><path fill="#6cb762" d="M 623.371094 201.949219 C 624.496094 200.914062 625.761719 199.527344 627.460938 199.863281 C 629.613281 200.148438 630.914062 202.085938 632.429688 203.425781 C 640.472656 211.472656 648.601562 219.433594 656.703125 227.429688 C 658.207031 228.972656 659.796875 230.46875 660.902344 232.332031 C 663.878906 237.042969 664.136719 243.277344 661.660156 248.246094 C 660.496094 250.621094 658.675781 252.578125 656.746094 254.351562 C 649.035156 261.941406 641.277344 269.496094 633.558594 277.097656 C 632.164062 278.417969 630.925781 279.90625 629.382812 281.058594 C 627.988281 282.167969 625.835938 281.78125 624.726562 280.449219 C 612.519531 268.433594 600.273438 256.449219 588.109375 244.386719 C 586.851562 243.128906 585.542969 241.910156 584.515625 240.453125 C 597.492188 227.640625 610.441406 214.796875 623.371094 201.949219 Z M 623.371094 201.949219 " fill-opacity="1" fill-rule="nonzero"/><path fill="#6cb762" d="M 456.234375 241.097656 C 456.496094 241.605469 456.707031 242.152344 456.667969 242.742188 C 456.6875 245.613281 456.503906 248.496094 456.742188 251.367188 C 457.09375 255.15625 459.238281 258.535156 461.886719 261.15625 C 470.402344 269.535156 478.953125 277.875 487.441406 286.277344 C 490.140625 288.847656 492.625 291.636719 495.503906 294 C 497.445312 295.421875 499.828125 296.28125 502.246094 296.308594 C 505.527344 296.410156 508.8125 296.066406 512.09375 296.335938 C 511.925781 296.59375 511.59375 297.113281 511.425781 297.378906 C 498.46875 309.414062 485.871094 321.824219 473.089844 334.035156 C 465.664062 341.128906 458.195312 348.164062 450.832031 355.332031 C 448.015625 357.945312 445.539062 361.003906 442.179688 362.96875 C 433.765625 367.828125 422.628906 367.964844 414.304688 362.820312 C 411.75 361.289062 409.707031 359.089844 407.566406 357.050781 C 401.3125 350.910156 394.921875 344.894531 388.75 338.652344 C 383.644531 333.378906 381.574219 325.511719 383.246094 318.378906 C 384.105469 314.03125 386.5625 310.160156 389.8125 307.1875 C 402.917969 294.8125 415.609375 282.011719 428.363281 269.277344 C 437.679688 259.929688 447.046875 250.59375 456.234375 241.097656 Z M 456.234375 241.097656 " fill-opacity="1" fill-rule="nonzero"/><path fill="#e93c34" d="M 491.570312 225.398438 C 495.773438 222.394531 502.007812 222.773438 505.800781 226.304688 C 508.480469 228.789062 511.058594 231.390625 513.773438 233.839844 C 516.785156 231.4375 519.25 228.445312 522.128906 225.90625 C 526.777344 221.878906 534.691406 222.765625 538.3125 227.742188 C 541.109375 231.289062 541.191406 236.480469 539.003906 240.339844 C 537.792969 242.402344 535.917969 243.941406 534.230469 245.597656 C 527.488281 252.28125 520.773438 258.996094 514.023438 265.664062 C 506.300781 258.3125 498.765625 250.757812 491.027344 243.417969 C 489.058594 241.625 487.515625 239.277344 487.117188 236.609375 C 486.242188 232.433594 488.042969 227.828125 491.570312 225.398438 Z M 491.570312 225.398438 " fill-opacity="1" fill-rule="nonzero"/><path fill="#ea4d2b" d="M 509.144531 314.242188 C 510.800781 312.71875 512.257812 310.972656 514.152344 309.726562 C 526.777344 321.648438 539.246094 333.738281 551.757812 345.78125 C 552.976562 346.789062 553.992188 348.542969 553.050781 350.085938 C 551.804688 352.097656 549.792969 353.449219 548.136719 355.109375 C 540.832031 362.3125 533.40625 369.386719 526.140625 376.628906 C 523.699219 379.09375 520.550781 380.96875 517.089844 381.46875 C 512.222656 382.375 507.050781 380.683594 503.449219 377.320312 C 494.480469 368.613281 485.449219 359.949219 476.425781 351.296875 C 475.378906 350.335938 474.734375 348.875 475.167969 347.464844 C 475.582031 346.695312 476.210938 346.070312 476.8125 345.449219 C 487.570312 335.042969 498.386719 324.660156 509.144531 314.242188 Z M 509.144531 314.242188 " fill-opacity="1" fill-rule="nonzero"/><g fill="#0296af" fill-opacity="1"><g transform="translate(396.122394, 442.147863)"><g><path d="M 9.84375 -19.34375 C 9.890625 -21.21875 9.890625 -22.984375 9.890625 -24.53125 L 9.890625 -26.578125 L 14.265625 -26.578125 L 14.265625 -19.34375 Z M 14.265625 -39.796875 L 14.265625 -31.890625 L 9.890625 -31.890625 L 9.890625 -39.796875 Z M 19.734375 -44.875 L 4.203125 -44.875 L 4.203125 -24.484375 C 4.203125 -16.6875 3.984375 -6.03125 1.109375 1.328125 C 2.328125 1.875 4.859375 3.921875 5.796875 5.03125 C 8.015625 -0.109375 9.0625 -7.234375 9.5625 -13.875 L 14.265625 -13.875 L 14.265625 -2.15625 C 14.265625 -1.484375 14.09375 -1.328125 13.484375 -1.265625 C 12.875 -1.265625 11.28125 -1.265625 9.609375 -1.375 C 10.328125 0.171875 11.109375 2.765625 11.28125 4.3125 C 14.203125 4.3125 16.25 4.203125 17.796875 3.15625 C 19.34375 2.203125 19.734375 0.546875 19.734375 -2.09375 Z M 28.234375 -3.59375 L 28.234375 -8.625 C 29.40625 -7.453125 30.78125 -5.96875 31.328125 -5.078125 C 33.484375 -7.296875 35.484375 -10.0625 37.25 -13.09375 C 38.90625 -10.71875 40.34375 -8.453125 41.234375 -6.578125 L 45.203125 -9.78125 L 45.203125 -3.59375 Z M 28.234375 -24.765625 C 30.0625 -22.65625 31.9375 -20.34375 33.71875 -18.015625 C 32.109375 -15.09375 30.28125 -12.4375 28.234375 -10.328125 Z M 45.203125 -11.5 C 43.9375 -13.65625 42.171875 -16.140625 40.171875 -18.6875 C 42 -22.65625 43.5 -26.96875 44.703125 -31.328125 L 39.296875 -32.609375 C 38.515625 -29.453125 37.53125 -26.421875 36.359375 -23.484375 C 34.765625 -25.359375 33.15625 -27.140625 31.671875 -28.734375 L 28.234375 -26.140625 L 28.234375 -29.625 L 22.15625 -29.625 L 22.15625 2.484375 L 45.203125 2.484375 L 45.203125 4.75 L 51.234375 4.75 L 51.234375 -29.671875 L 45.203125 -29.671875 Z M 40.78125 -39.1875 C 39.796875 -41.390625 37.90625 -44.59375 36.46875 -46.96875 L 30.609375 -44.984375 C 31.5625 -43.21875 32.71875 -41.125 33.59375 -39.1875 L 21.109375 -39.1875 L 21.109375 -33.046875 L 52.5625 -33.046875 L 52.5625 -39.1875 Z M 40.78125 -39.1875 "/></g></g></g><g fill="#0296af" fill-opacity="1"><g transform="translate(455.316927, 442.147863)"><g><path d="M 16.96875 -15.96875 L 13.203125 -14.09375 L 13.203125 -27.40625 L 17.359375 -27.40625 L 17.359375 -33.71875 L 13.203125 -33.71875 L 13.203125 -46.09375 L 7.078125 -46.09375 L 7.078125 -33.71875 L 2.09375 -33.71875 L 2.09375 -27.40625 L 7.078125 -27.40625 L 7.078125 -10.9375 C 5.03125 -10 3.15625 -9.125 1.609375 -8.453125 L 4.09375 -1.828125 C 8.625 -4.25 13.984375 -7.296875 18.84375 -10.171875 Z M 46.203125 -29.625 C 45.375 -25.921875 44.4375 -22.546875 43.15625 -19.34375 C 42.671875 -23.546875 42.328125 -28.234375 42.109375 -33.265625 L 52.828125 -33.265625 L 52.828125 -39.234375 L 50.40625 -39.234375 L 52.78125 -41.453125 C 51.5 -43.046875 48.859375 -45.265625 46.703125 -46.8125 L 43 -43.609375 C 44.59375 -42.328125 46.421875 -40.671875 47.8125 -39.234375 L 41.953125 -39.234375 C 41.890625 -41.78125 41.890625 -44.265625 41.953125 -46.8125 L 35.703125 -46.8125 C 35.703125 -44.265625 35.75 -41.78125 35.8125 -39.234375 L 18.1875 -39.234375 L 18.1875 -33.265625 L 36.03125 -33.265625 C 36.359375 -24.703125 37.078125 -16.640625 38.359375 -10.0625 C 37.640625 -9.015625 36.859375 -8.015625 36.03125 -7.015625 L 35.53125 -11.390625 C 28.578125 -9.84375 21.328125 -8.171875 16.53125 -7.296875 L 18.078125 -1.15625 C 22.828125 -2.375 29.015625 -4.03125 34.875 -5.578125 C 32.765625 -3.375 30.453125 -1.375 27.796875 0.28125 C 29.1875 1.21875 31.609375 3.3125 32.5 4.421875 C 35.375 2.375 37.96875 -0.0625 40.234375 -2.875 C 41.953125 1.828125 44.265625 4.75 47.359375 4.75 C 51.5 4.75 53.109375 2.65625 54.046875 -4.703125 C 52.671875 -5.421875 50.84375 -6.796875 49.625 -8.34375 C 49.46875 -3.421875 49.015625 -1.375 48.25 -1.375 C 46.921875 -1.375 45.65625 -4.359375 44.703125 -9.28125 C 47.921875 -14.8125 50.34375 -21.28125 52.0625 -28.515625 Z M 28.84375 -17.796875 L 24.59375 -17.796875 L 24.59375 -24.53125 L 28.84375 -24.53125 Z M 19.78125 -29.5625 L 19.78125 -12.765625 L 33.984375 -12.765625 L 33.984375 -29.5625 Z M 19.78125 -29.5625 "/></g></g></g><g fill="#0296af" fill-opacity="1"><g transform="translate(514.511461, 442.147863)"><g><path d="M 52.171875 -43.390625 L 40.5625 -43.390625 L 40.5625 -37.46875 L 52.171875 -37.46875 Z M 10.328125 -46.8125 C 8.515625 -43.390625 4.859375 -38.96875 1.484375 -36.203125 C 2.484375 -34.984375 4.03125 -32.546875 4.8125 -31.171875 C 8.890625 -34.59375 13.3125 -39.84375 16.25 -44.65625 Z M 29.234375 -37.53125 C 28.734375 -36.25 28.1875 -35.03125 27.6875 -33.984375 L 22.375 -33.984375 C 23.046875 -35.15625 23.703125 -36.3125 24.203125 -37.53125 Z M 33.375 -26.578125 L 30.125 -26.578125 L 30.125 -29.5625 L 33.375 -29.5625 Z M 33.375 -19.390625 L 30.125 -19.390625 L 30.125 -22.4375 L 33.375 -22.4375 Z M 22.109375 -22.4375 L 25.59375 -22.4375 L 25.59375 -19.390625 L 22.109375 -19.390625 Z M 22.109375 -29.5625 L 25.59375 -29.5625 L 25.59375 -26.578125 L 22.109375 -26.578125 Z M 17.40625 -14.984375 L 38.296875 -14.984375 L 38.296875 -33.984375 L 33.484375 -33.984375 C 34.65625 -36.03125 35.8125 -38.296875 36.578125 -40.234375 L 32.765625 -42.71875 L 31.890625 -42.5 L 26.3125 -42.5 C 26.6875 -43.546875 27.03125 -44.546875 27.359375 -45.53125 L 21.546875 -46.484375 C 20.453125 -42.5 18.453125 -37.75 15.3125 -33.765625 L 11.15625 -35.265625 C 8.78125 -29.84375 4.859375 -24.203125 1.046875 -20.5 C 2.15625 -19.125 3.984375 -15.921875 4.59375 -14.53125 C 5.46875 -15.46875 6.40625 -16.578125 7.34375 -17.6875 L 7.34375 4.8125 L 13.3125 4.8125 L 13.3125 -26.421875 C 14.09375 -27.75 14.859375 -29.125 15.53125 -30.5 C 16.1875 -29.953125 16.859375 -29.40625 17.40625 -28.84375 Z M 39.296875 -6.90625 L 39.296875 -12.109375 L 30.453125 -12.109375 C 30.5 -12.828125 30.5625 -13.546875 30.609375 -14.265625 L 24.984375 -14.265625 C 24.921875 -13.546875 24.875 -12.828125 24.8125 -12.109375 L 15.96875 -12.109375 L 15.96875 -6.90625 L 23.65625 -6.90625 C 22.375 -3.8125 20 -1.484375 15.203125 0.109375 C 16.359375 1.15625 17.796875 3.15625 18.34375 4.53125 C 23.4375 2.703125 26.421875 0.171875 28.125 -3.265625 C 30.609375 -1.15625 33.109375 1.15625 34.375 2.875 L 38.359375 -1.109375 C 36.96875 -2.8125 34.4375 -4.96875 31.9375 -6.90625 Z M 53.328125 -29.78125 L 39.515625 -29.78125 L 39.515625 -23.8125 L 43.828125 -23.8125 L 43.828125 -2.046875 C 43.828125 -1.4375 43.65625 -1.265625 43.046875 -1.265625 C 42.5 -1.265625 40.671875 -1.265625 38.96875 -1.328125 C 39.734375 0.4375 40.40625 2.875 40.515625 4.59375 C 43.65625 4.59375 45.921875 4.46875 47.578125 3.484375 C 49.296875 2.484375 49.6875 0.890625 49.6875 -1.9375 L 49.6875 -23.8125 L 53.328125 -23.8125 Z M 53.328125 -29.78125 "/></g></g></g><g fill="#0296af" fill-opacity="1"><g transform="translate(573.705994, 442.147863)"><g><path d="M 11.109375 -34.765625 L 43.984375 -34.765625 L 43.984375 -28.515625 L 51.015625 -28.515625 L 51.015625 -40.84375 L 31.5 -40.84375 C 30.671875 -42.71875 29.515625 -45.09375 28.46875 -46.96875 L 21.546875 -45.375 C 22.21875 -43.984375 22.984375 -42.390625 23.59375 -40.84375 L 4.421875 -40.84375 L 4.421875 -28.515625 L 11.109375 -28.515625 Z M 34.59375 -19.234375 C 33.21875 -16.078125 31.328125 -13.421875 29.015625 -11.15625 C 25.921875 -12.328125 22.9375 -13.484375 19.953125 -14.484375 C 20.953125 -15.921875 21.9375 -17.515625 22.984375 -19.234375 Z M 52.0625 -19.234375 L 52.0625 -25.421875 L 26.359375 -25.421875 C 27.515625 -27.640625 28.578125 -29.90625 29.453125 -32.046875 L 22.109375 -33.546875 C 21.109375 -31 19.78125 -28.1875 18.34375 -25.421875 L 3.375 -25.421875 L 3.375 -19.234375 L 14.8125 -19.234375 C 13.09375 -16.46875 11.328125 -13.875 9.671875 -11.71875 L 9.5625 -11.609375 C 13.703125 -10.28125 18.234375 -8.5625 22.71875 -6.75 C 17.578125 -4.03125 11.15625 -2.328125 3.53125 -1.265625 C 4.8125 0.171875 6.75 3.203125 7.453125 4.8125 C 16.40625 3.09375 24.046875 0.5 30.015625 -3.640625 C 36.53125 -0.65625 42.5 2.375 46.421875 4.96875 L 51.78125 -0.609375 C 47.75 -3.09375 41.890625 -5.859375 35.640625 -8.515625 C 38.296875 -11.5 40.5625 -15.03125 42.21875 -19.234375 Z M 52.0625 -19.234375 "/></g></g></g><g fill="#0296af" fill-opacity="1"><g transform="translate(366.860268, 476.5108)"><g><path d="M 3.484375 0 L 3.484375 -10.34375 L 9.15625 0 L 11.84375 0 L 11.84375 -13.40625 L 9.640625 -13.40625 L 9.640625 -3.078125 L 3.953125 -13.40625 L 1.25 -13.40625 L 1.25 0 Z M 3.484375 0 "/></g></g></g><g fill="#0296af" fill-opacity="1"><g transform="translate(393.109457, 476.5108)"><g><path d="M 10.125 0 L 10.125 -2 L 3.484375 -2 L 3.484375 -5.734375 L 9.390625 -5.734375 L 9.390625 -7.71875 L 3.484375 -7.71875 L 3.484375 -11.40625 L 10.125 -11.40625 L 10.125 -13.40625 L 1.25 -13.40625 L 1.25 0 Z M 10.125 0 "/></g></g></g><g fill="#0296af" fill-opacity="1"><g transform="translate(417.125917, 476.5108)"><g><path d="M 6.40625 0.234375 C 10.09375 0.234375 11.65625 -1.78125 11.65625 -4.78125 L 11.65625 -13.40625 L 9.421875 -13.40625 L 9.421875 -4.78125 C 9.421875 -2.984375 8.609375 -1.765625 6.40625 -1.765625 C 4.171875 -1.765625 3.359375 -2.984375 3.359375 -4.78125 L 3.359375 -13.40625 L 1.125 -13.40625 L 1.125 -4.78125 C 1.125 -1.78125 2.703125 0.234375 6.40625 0.234375 Z M 6.40625 0.234375 "/></g></g></g><g fill="#0296af" fill-opacity="1"><g transform="translate(443.058337, 476.5108)"><g><path d="M 8.828125 -5.859375 C 10.203125 -6.46875 11.015625 -7.71875 11.015625 -9.5 C 11.015625 -12.21875 9.296875 -13.40625 6.78125 -13.40625 L 1.25 -13.40625 L 1.25 0 L 3.484375 0 L 3.484375 -5.46875 L 6.6875 -5.46875 L 8.890625 0 L 11.296875 0 Z M 3.484375 -11.40625 L 6.484375 -11.40625 C 7.984375 -11.40625 8.828125 -10.703125 8.828125 -9.421875 C 8.828125 -8.125 8 -7.421875 6.484375 -7.421875 L 3.484375 -7.421875 Z M 3.484375 -11.40625 "/></g></g></g><g fill="#0296af" fill-opacity="1"><g transform="translate(468.129461, 476.5108)"><g><path d="M 7.171875 0.234375 C 11.53125 0.234375 13.59375 -3.03125 13.59375 -6.71875 C 13.59375 -10.40625 11.53125 -13.625 7.171875 -13.625 C 2.796875 -13.625 0.75 -10.40625 0.75 -6.71875 C 0.75 -3.03125 2.796875 0.234375 7.171875 0.234375 Z M 7.171875 -1.78125 C 4.53125 -1.78125 3.0625 -3.8125 3.0625 -6.71875 C 3.0625 -9.59375 4.53125 -11.640625 7.171875 -11.640625 C 9.828125 -11.640625 11.28125 -9.59375 11.28125 -6.71875 C 11.28125 -3.8125 9.828125 -1.78125 7.171875 -1.78125 Z M 7.171875 -1.78125 "/></g></g></g><g fill="#0296af" fill-opacity="1"><g transform="translate(495.626272, 476.5108)"><g><path d="M 6.703125 0 C 7.59375 0 9.234375 -0.140625 10.3125 -1.109375 C 10.96875 -1.6875 11.4375 -2.625 11.4375 -3.84375 C 11.4375 -5.640625 10.453125 -6.828125 8.6875 -7.03125 C 10 -7.3125 10.78125 -8.515625 10.78125 -10.0625 C 10.78125 -11.015625 10.5 -11.796875 9.921875 -12.359375 C 9.234375 -13.046875 8.109375 -13.40625 6.46875 -13.40625 L 1.25 -13.40625 L 1.25 0 Z M 3.484375 -11.40625 L 6 -11.40625 C 6.9375 -11.40625 7.609375 -11.265625 8.03125 -10.875 C 8.34375 -10.578125 8.546875 -10.171875 8.546875 -9.59375 C 8.546875 -8.421875 7.765625 -7.75 6.359375 -7.75 L 3.484375 -7.75 Z M 3.484375 -5.90625 L 6.734375 -5.90625 C 7.703125 -5.90625 9.234375 -5.84375 9.234375 -4.03125 C 9.234375 -3.34375 9 -2.890625 8.671875 -2.578125 C 8.046875 -2.015625 7.0625 -2 6.4375 -2 L 3.484375 -2 Z M 3.484375 -5.90625 "/></g></g></g><g fill="#0296af" fill-opacity="1"><g transform="translate(520.978633, 476.5108)"><g><path d="M 2.484375 0 L 3.484375 -2.9375 L 8.90625 -2.9375 L 9.890625 0 L 12.21875 0 L 7.421875 -13.40625 L 4.953125 -13.40625 L 0.15625 0 Z M 6.1875 -11.015625 L 8.25 -4.890625 L 4.125 -4.890625 Z M 6.1875 -11.015625 "/></g></g></g><g fill="#0296af" fill-opacity="1"><g transform="translate(546.48919, 476.5108)"><g><path d="M 9.28125 0 L 9.28125 -2 L 3.484375 -2 L 3.484375 -13.40625 L 1.25 -13.40625 L 1.25 0 Z M 9.28125 0 "/></g></g></g><g fill="#0296af" fill-opacity="1"><g transform="translate(569.117032, 476.5108)"><g><path d="M 2.484375 0 L 3.484375 -2.9375 L 8.90625 -2.9375 L 9.890625 0 L 12.21875 0 L 7.421875 -13.40625 L 4.953125 -13.40625 L 0.15625 0 Z M 6.1875 -11.015625 L 8.25 -4.890625 L 4.125 -4.890625 Z M 6.1875 -11.015625 "/></g></g></g><g fill="#0296af" fill-opacity="1"><g transform="translate(594.627598, 476.5108)"><g><path d="M 3.484375 0 L 3.484375 -10.34375 L 9.15625 0 L 11.84375 0 L 11.84375 -13.40625 L 9.640625 -13.40625 L 9.640625 -3.078125 L 3.953125 -13.40625 L 1.25 -13.40625 L 1.25 0 Z M 3.484375 0 "/></g></g></g><g fill="#0296af" fill-opacity="1"><g transform="translate(620.8764, 476.5108)"><g><path d="M 7.140625 0.234375 C 10.359375 0.234375 12.34375 -1.53125 12.75 -4.25 L 10.296875 -4.25 C 10.015625 -2.578125 8.796875 -1.765625 7.109375 -1.765625 C 4.453125 -1.765625 3.0625 -3.8125 3.0625 -6.71875 C 3.0625 -9.59375 4.453125 -11.640625 7.109375 -11.640625 C 8.796875 -11.640625 10.015625 -10.8125 10.296875 -9.375 L 12.75 -9.375 C 12.359375 -11.90625 10.359375 -13.625 7.140625 -13.625 C 2.765625 -13.625 0.75 -10.390625 0.75 -6.71875 C 0.75 -3.046875 2.765625 0.234375 7.140625 0.234375 Z M 7.140625 0.234375 "/></g></g></g><g fill="#0296af" fill-opacity="1"><g transform="translate(647.371282, 476.5108)"><g><path d="M 10.125 0 L 10.125 -2 L 3.484375 -2 L 3.484375 -5.734375 L 9.390625 -5.734375 L 9.390625 -7.71875 L 3.484375 -7.71875 L 3.484375 -11.40625 L 10.125 -11.40625 L 10.125 -13.40625 L 1.25 -13.40625 L 1.25 0 Z M 10.125 0 "/></g></g></g></svg>